<?xml version="1.0" encoding="utf-8"?>
<!-- Generator: Adobe Illustrator 16.0.0, SVG Export Plug-In . SVG Version: 6.00 Build 0)  -->
<!DOCTYPE svg PUBLIC "-//W3C//DTD SVG 1.1//EN" "http://www.w3.org/Graphics/SVG/1.1/DTD/svg11.dtd">
<svg version="1.1" id="Calque_1" xmlns="http://www.w3.org/2000/svg" xmlns:xlink="http://www.w3.org/1999/xlink" x="0px" y="0px"
	 width="16px" height="16px" viewBox="0 0 16 16" style="enable-background:new 0 0 16 16;" xml:space="preserve">
<style type="text/css">
<![CDATA[
	.st0{fill:#4AA5E0;}
	.st1{fill:#E8E6DC;}
	.st2{fill:#EDEADF;}
	.st3{fill:#F7BA3B;}
	.st4{fill:#F96838;}
	.st5{fill:#9F131F;}
]]>
</style>
<rect class="st0" width="16" height="16"/>
<polygon class="st3" points="13,2 13,3 12,3 12,4 11,4 11,3 11,2 10,2 10,3 9,3 9,4 8,4 8,3 8,2 7,2 7,3 6,3 6,4 4,4 4,5 3,5 3,6 
	3,6 2,6 2,12 3,12 3,13 5,13 5,14 10,14 10,13 12,13 12,12 13,12 13,10 14,10 14,2 "/>
<rect x="13" y="3" class="st4" width="1" height="7"/>
<rect x="12" y="6" class="st4" width="1" height="6"/>
<rect x="11" y="8" class="st4" width="1" height="5"/>
<rect x="5" y="10" class="st4" width="6" height="3"/>
<rect x="3" y="12" class="st4" width="2" height="1"/>
<rect x="5" y="13" class="st4" width="5" height="1"/>
<rect x="9" y="10" class="st5" width="1" height="1"/>
<rect x="4" y="10" class="st5" width="1" height="1"/>
<polygon points="15,2 14,2 14,10 15,10 15,10 15,2 "/>
<rect x="2" y="12" width="1" height="1"/>
<rect x="12" y="12" width="1" height="1"/>
<polygon points="11,4 12,4 12,3 13,3 13,2 11,2 11,3 "/>
<rect x="10" y="1" width="1" height="1"/>
<rect x="3" y="4" width="1" height="1"/>
<polygon points="1,6 1,12 2,12 2,12 2,6 "/>
<polygon points="3,5 2,5 2,6 3,6 3,6 3,5 "/>
<rect x="13" y="1" width="1" height="1"/>
<polygon points="8,4 9,4 9,3 10,3 10,2 8,2 8,3 "/>
<rect x="7" y="1" width="1" height="1"/>
<rect x="6" y="2" width="1" height="1"/>
<rect x="4" y="3" width="2" height="1"/>
<rect x="3" y="13" width="2" height="1"/>
<rect x="10" y="13" width="2" height="1"/>
<rect x="5" y="14" width="5" height="1"/>
<rect x="13" y="10" width="1" height="2"/>
<rect x="5" y="6" width="1" height="3"/>
<rect x="6" y="6" class="st1" width="1" height="3"/>
<rect x="9" y="6" class="st1" width="1" height="3"/>
<rect x="8" y="6" width="1" height="3"/>
<rect x="5" y="10" width="4" height="1"/>
<rect x="5" y="11" width="1" height="1"/>
<rect x="8" y="11" width="1" height="1"/>
<rect x="8" y="5" class="st2" width="1" height="1"/>
<rect x="5" y="4" class="st2" width="1" height="2"/>
<rect x="4" y="5" class="st2" width="1" height="1"/>
<rect x="3" y="6" class="st2" width="1" height="1"/>
</svg>
